<svg width="205" height="60" viewBox="0 0 205 60" fill="none" xmlns="http://www.w3.org/2000/svg">
<path d="M76.494 36V23.4H79.41V33.624H85.728V36H76.494ZM90.0393 28.476H96.1053V30.744H90.0393V28.476ZM90.2553 33.66H97.1133V36H87.3573V23.4H96.8793V25.74H90.2553V33.66ZM97.7775 36L103.393 23.4H106.273L111.907 36H108.847L104.239 24.876H105.391L100.765 36H97.7775ZM100.585 33.3L101.359 31.086H107.839L108.631 33.3H100.585ZM113.215 36V23.4H118.669C119.797 23.4 120.769 23.586 121.585 23.958C122.401 24.318 123.031 24.84 123.475 25.524C123.919 26.208 124.141 27.024 124.141 27.972C124.141 28.908 123.919 29.718 123.475 30.402C123.031 31.074 122.401 31.59 121.585 31.95C120.769 32.31 119.797 32.49 118.669 32.49H114.835L116.131 31.212V36H113.215ZM121.225 36L118.075 31.428H121.189L124.375 36H121.225ZM116.131 31.536L114.835 30.168H118.507C119.407 30.168 120.079 29.976 120.523 29.592C120.967 29.196 121.189 28.656 121.189 27.972C121.189 27.276 120.967 26.736 120.523 26.352C120.079 25.968 119.407 25.776 118.507 25.776H114.835L116.131 24.39V31.536ZM126.451 36V23.4H128.863L136.297 32.472H135.127V23.4H138.007V36H135.613L128.161 26.928H129.331V36H126.451ZM146.086 36V23.4H148.498L153.862 32.292H152.584L157.858 23.4H160.252L160.288 36H157.552L157.534 27.594H158.038L153.826 34.668H152.512L148.21 27.594H148.822V36H146.086ZM169.397 36.216C168.401 36.216 167.477 36.054 166.625 35.73C165.785 35.406 165.053 34.95 164.429 34.362C163.817 33.774 163.337 33.084 162.989 32.292C162.653 31.5 162.485 30.636 162.485 29.7C162.485 28.764 162.653 27.9 162.989 27.108C163.337 26.316 163.823 25.626 164.447 25.038C165.071 24.45 165.803 23.994 166.643 23.67C167.483 23.346 168.395 23.184 169.379 23.184C170.375 23.184 171.287 23.346 172.115 23.67C172.955 23.994 173.681 24.45 174.293 25.038C174.917 25.626 175.403 26.316 175.751 27.108C176.099 27.888 176.273 28.752 176.273 29.7C176.273 30.636 176.099 31.506 175.751 32.31C175.403 33.102 174.917 33.792 174.293 34.38C173.681 34.956 172.955 35.406 172.115 35.73C171.287 36.054 170.381 36.216 169.397 36.216ZM169.379 33.732C169.943 33.732 170.459 33.636 170.927 33.444C171.407 33.252 171.827 32.976 172.187 32.616C172.547 32.256 172.823 31.83 173.015 31.338C173.219 30.846 173.321 30.3 173.321 29.7C173.321 29.1 173.219 28.554 173.015 28.062C172.823 27.57 172.547 27.144 172.187 26.784C171.839 26.424 171.425 26.148 170.945 25.956C170.465 25.764 169.943 25.668 169.379 25.668C168.815 25.668 168.293 25.764 167.813 25.956C167.345 26.148 166.931 26.424 166.571 26.784C166.211 27.144 165.929 27.57 165.725 28.062C165.533 28.554 165.437 29.1 165.437 29.7C165.437 30.288 165.533 30.834 165.725 31.338C165.929 31.83 166.205 32.256 166.553 32.616C166.913 32.976 167.333 33.252 167.813 33.444C168.293 33.636 168.815 33.732 169.379 33.732ZM178.465 36V23.4H183.919C185.047 23.4 186.019 23.586 186.835 23.958C187.651 24.318 188.281 24.84 188.725 25.524C189.169 26.208 189.391 27.024 189.391 27.972C189.391 28.908 189.169 29.718 188.725 30.402C188.281 31.074 187.651 31.59 186.835 31.95C186.019 32.31 185.047 32.49 183.919 32.49H180.085L181.381 31.212V36H178.465ZM186.475 36L183.325 31.428H186.439L189.625 36H186.475ZM181.381 31.536L180.085 30.168H183.757C184.657 30.168 185.329 29.976 185.773 29.592C186.217 29.196 186.439 28.656 186.439 27.972C186.439 27.276 186.217 26.736 185.773 26.352C185.329 25.968 184.657 25.776 183.757 25.776H180.085L181.381 24.39V31.536ZM194.383 28.476H200.449V30.744H194.383V28.476ZM194.599 33.66H201.457V36H191.701V23.4H201.223V25.74H194.599V33.66Z" fill="black"/>
<path d="M30 10C41.0232 10 50 18.9725 50 30.0116C50 41.0275 41.0232 50 30 50C18.9768 50 10 41.0275 10 30.0116C10 18.9725 18.9768 10 30 10ZM27.722 22.0598C27.2973 22.0598 26.8919 22.1563 26.5058 22.3493C26.0232 22.6194 25.6371 23.0439 25.4247 23.5456C25.2896 23.8929 25.0772 24.9349 25.0772 24.9542C24.8649 26.0926 24.749 27.945 24.749 29.9904C24.749 31.9411 24.8649 33.7144 25.0386 34.8722C25.0579 34.8915 25.2703 36.1843 25.5019 36.6281C25.9266 37.4385 26.7568 37.9402 27.6448 37.9402H27.722C28.3012 37.9209 29.5174 37.4192 29.5174 37.3999C31.5637 36.5509 35.5985 33.9074 37.2201 32.1515L37.3359 32.0357C37.5483 31.8234 37.8185 31.4954 37.8764 31.4182C38.1853 31.013 38.3398 30.5113 38.3398 30.0116C38.3398 29.4501 38.166 28.9291 37.8378 28.5046C37.7606 28.4274 37.471 28.0994 37.2008 27.8292C35.6178 26.1312 31.4865 23.3526 29.3243 22.5036C28.9961 22.3705 28.166 22.0791 27.722 22.0598Z" fill="#5F6064"/>
<path fill-rule="evenodd" clip-rule="evenodd" d="M30 0C13.4315 0 0 13.4315 0 30C0 46.5685 13.4315 60 30 60V56C15.6406 56 4 44.3594 4 30C4 15.6406 15.6406 4 30 4V0Z" fill="#FF6600"/>
</svg>
