<svg width="19" height="27" viewBox="0 0 19 27" fill="none" xmlns="http://www.w3.org/2000/svg">
<path d="M16.2528 10.3591C16.2528 12.2485 13.104 13.7802 9.2198 13.7802C5.3356 13.7802 2.18683 12.2485 2.18683 10.3591C2.18683 8.46968 4.10491 2.7912 9.2198 2.7912C13.7434 2.7912 16.2528 8.46968 16.2528 10.3591Z" fill="white"/>
<path d="M2.18683 17.2013C2.18683 15.3119 5.3356 13.7802 9.2198 13.7802C13.104 13.7802 16.2528 15.3119 16.2528 17.2013C16.2528 19.0907 14.3347 24.7692 9.2198 24.7692C4.69623 24.7692 2.18683 19.0907 2.18683 17.2013Z" fill="white"/>
<path d="M9.2198 13.7802C13.104 13.7802 16.2528 12.2485 16.2528 10.3591C16.2528 8.46968 13.7434 2.7912 9.2198 2.7912C4.10491 2.7912 2.18683 8.46968 2.18683 10.3591C2.18683 12.2485 5.3356 13.7802 9.2198 13.7802ZM9.2198 13.7802C5.3356 13.7802 2.18683 15.3119 2.18683 17.2013C2.18683 19.0907 4.69623 24.7692 9.2198 24.7692C14.3347 24.7692 16.2528 19.0907 16.2528 17.2013C16.2528 15.3119 13.104 13.7802 9.2198 13.7802Z" stroke="#5A40F9" stroke-width="4"/>
</svg>
